<?xml version="1.0" standalone="no"?>
<!DOCTYPE svg PUBLIC "-//W3C//DTD SVG 20010904//EN"
 "http://www.w3.org/TR/2001/REC-SVG-20010904/DTD/svg10.dtd">
<svg version="1.0" xmlns="http://www.w3.org/2000/svg"
 width="300.000000pt" height="300.000000pt" viewBox="0 0 300.000000 300.000000"
 preserveAspectRatio="xMidYMid meet">
<metadata>
Created by potrace 1.10, written by Peter Selinger 2001-2011
</metadata>
<g transform="translate(0.000000,300.000000) scale(0.100000,-0.100000)"
fill="#000000" stroke="none">
<path d="M52 2723 l-2 -282 41 -11 c54 -15 239 -50 261 -50 17 0 18 19 18 268
l0 268 35 -4 35 -4 0 -613 c0 -336 3 -646 6 -687 7 -74 6 -75 -18 -80 -23 -4
-52 13 -42 26 2 3 -1 2 -8 -3 -7 -7 -18 -7 -29 -1 -11 6 -20 6 -23 1 -4 -5 7
-12 23 -16 31 -7 48 -32 32 -48 -13 -13 -2 -37 15 -30 8 3 12 9 9 13 -3 5 1
15 9 23 8 8 12 17 9 21 -4 3 1 6 10 6 15 0 17 -16 18 -137 2 -155 15 -245 19
-133 l3 65 6 -54 c6 -50 8 -55 36 -63 16 -4 42 -5 57 -3 27 5 28 3 27 -32 0
-21 -4 -58 -8 -83 l-7 -45 73 0 73 0 0 78 0 77 85 0 c87 0 92 -3 86 -42 0 -5
11 -7 26 -7 17 1 21 3 11 6 -11 3 -18 14 -18 28 0 22 4 24 83 30 106 8 257 8
265 1 3 -3 -5 -17 -18 -31 -16 -17 -27 -22 -35 -15 -7 5 -16 6 -20 2 -5 -4 -5
2 -2 13 6 18 5 18 -5 4 -9 -11 -25 -15 -55 -12 -25 2 -43 0 -43 -6 0 -6 28
-11 63 -13 56 -3 62 -5 65 -25 2 -13 -1 -23 -7 -23 -6 0 -11 -6 -11 -14 0 -11
-15 -14 -60 -15 l-59 0 -8 37 c-4 20 -6 40 -5 45 1 4 -3 7 -9 7 -6 0 -8 -8 -5
-17 17 -57 18 -73 5 -73 -8 0 -24 -3 -36 -6 -20 -5 -23 -2 -24 22 -1 29 -1 29
-8 4 -4 -16 -15 -26 -30 -28 -23 -4 -24 2 -4 56 3 6 0 12 -6 12 -6 0 -11 -9
-11 -21 0 -11 -5 -29 -10 -40 -10 -17 -7 -19 23 -19 19 0 63 -2 98 -4 50 -4
55 -3 24 3 l-40 8 45 1 c47 2 151 -11 185 -23 16 -6 17 -5 5 4 -12 8 -8 11 18
11 18 0 41 -4 50 -8 9 -5 31 -5 47 -1 17 4 22 7 11 8 -15 1 -16 4 -6 16 17 20
1 19 -22 -2 -14 -12 -23 -14 -41 -6 -12 5 -38 8 -57 6 -34 -4 -36 -3 -34 24 2
52 4 58 28 85 14 14 22 29 19 32 -4 3 35 6 85 6 l92 0 0 -45 c0 -61 -11 -71
-76 -67 -55 4 -74 19 -87 67 -4 19 -5 19 -6 -1 0 -11 6 -29 14 -40 21 -28 18
-34 -16 -34 -16 0 -28 -4 -24 -9 3 -6 18 -6 38 0 43 12 91 11 104 -2 7 -7 21
-4 46 10 31 17 56 20 176 22 77 0 143 -1 148 -4 11 -7 48 21 40 29 -4 4 -13 1
-22 -6 -27 -22 -26 -5 1 44 14 25 24 52 21 59 -5 14 31 43 41 33 3 -3 -3 -16
-14 -28 -10 -13 -15 -20 -10 -15 5 4 21 0 35 -10 l26 -16 -16 24 c-16 23 -15
26 12 59 16 19 29 39 29 45 0 5 4 16 9 24 8 13 12 13 28 1 11 -9 9 -5 -5 11
-12 14 -19 29 -15 32 3 4 -7 2 -23 -3 -23 -8 -36 -24 -55 -65 -23 -53 -25 -55
-63 -55 l-39 0 7 61 c3 34 6 109 6 165 0 63 4 104 10 104 6 0 10 -6 10 -13 0
-7 9 -20 20 -30 19 -16 20 -16 20 3 0 11 -5 20 -11 20 -8 0 -7 5 1 15 7 9 10
18 6 22 -3 3 -6 1 -6 -5 0 -7 -4 -12 -10 -12 -5 0 -10 14 -10 30 0 17 5 30 11
30 5 0 7 -5 3 -12 -5 -8 2 -9 24 -5 29 6 32 4 32 -19 0 -14 10 -42 22 -63 25
-43 19 -76 -12 -68 -10 3 -21 0 -25 -7 -3 -6 -4 3 -2 20 2 24 0 31 -10 27 -8
-3 -12 -12 -9 -20 3 -8 6 -24 6 -35 0 -18 4 -19 33 -14 17 4 40 7 50 7 9 0 15
5 11 10 -3 6 0 9 7 8 16 -4 59 22 59 34 0 11 -33 5 -42 -8 -5 -6 -8 -5 -8 3 0
7 -5 10 -11 6 -7 -4 -10 1 -7 12 2 11 10 19 18 20 35 2 40 5 56 30 9 14 17 39
16 56 -1 34 -36 78 -63 78 -9 0 -19 9 -22 20 -7 26 35 60 66 53 21 -4 21 -3
-3 11 l-25 15 38 1 c23 0 36 -4 32 -10 -4 -6 1 -7 11 -3 12 4 15 3 10 -5 -4
-7 -4 -13 1 -13 40 -7 53 -5 53 7 0 8 -7 14 -16 14 -9 0 -27 11 -40 26 -22 23
-23 27 -9 53 12 24 22 29 67 34 92 11 88 14 88 -48 0 -43 -3 -55 -16 -55 -8 0
-12 4 -9 10 3 5 -7 2 -24 -8 -16 -9 -28 -18 -26 -20 2 -2 11 1 21 6 10 6 27 6
39 2 34 -13 46 2 43 53 -2 26 -6 47 -10 47 -5 0 -8 5 -8 11 0 6 10 9 23 7 20
-3 22 -9 23 -71 1 -37 4 -78 8 -90 3 -12 1 -28 -3 -36 -7 -11 -11 -10 -20 5
-16 29 -13 7 5 -27 8 -17 14 -32 12 -34 -2 -1 -40 -5 -85 -8 -70 -5 -81 -4
-76 8 3 8 1 15 -3 15 -11 -1 -64 -87 -64 -104 0 -7 -7 -21 -15 -32 -16 -21
-20 -38 -6 -30 14 9 82 16 77 8 -2 -4 25 -7 60 -8 35 0 66 -2 69 -5 2 -3 6
-23 7 -45 2 -21 6 -41 9 -44 4 -3 10 -24 14 -47 l7 -43 -36 0 c-20 0 -54 11
-78 25 -77 46 -112 58 -163 58 -64 -1 -88 -6 -93 -23 -3 -8 0 -10 8 -5 22 13
85 6 135 -15 65 -28 81 -24 20 5 -27 13 -45 24 -38 24 19 2 66 -19 105 -46 20
-14 54 -31 75 -39 21 -7 32 -13 24 -14 -11 0 -9 -4 5 -14 10 -8 23 -11 29 -7
5 5 22 11 36 15 24 5 27 2 37 -34 5 -22 6 -42 2 -45 -13 -8 -42 26 -36 41 3 8
0 11 -10 7 -7 -3 -14 -14 -14 -24 0 -29 -28 -35 -53 -12 -35 31 -54 39 -29 11
12 -13 19 -28 15 -31 -3 -4 27 -7 68 -7 41 0 79 -4 86 -8 7 -4 -32 -6 -87 -4
-57 3 -113 0 -132 -7 -28 -9 -30 -9 -16 2 16 13 16 16 -1 61 -9 26 -33 62 -52
79 l-34 32 31 -35 c17 -19 36 -54 43 -77 10 -37 9 -46 -6 -70 -10 -15 -12 -24
-5 -20 19 12 15 -3 -30 -135 -55 -163 -80 -219 -86 -193 -7 32 -20 39 -15 8
12 -75 29 -55 82 97 18 52 40 103 48 112 22 24 65 35 165 43 69 5 88 10 91 23
4 16 5 16 6 1 0 -9 13 -21 29 -25 19 -6 -13 -10 -106 -14 -176 -8 -178 -10
-226 -165 -12 -42 -12 -47 0 -31 8 11 14 25 14 31 0 6 7 35 15 63 22 72 41 80
196 84 l124 3 -3 -27 c-3 -26 0 -28 35 -27 38 2 38 2 8 9 -25 6 -24 7 10 4 22
-2 82 -7 133 -10 50 -4 92 -11 92 -17 0 -6 -30 -7 -82 -3 -115 10 -108 9 -160
8 -27 -1 -48 -5 -48 -9 0 -10 346 -10 356 0 4 4 -7 7 -24 7 -25 0 -32 4 -32
20 0 25 35 27 49 3 10 -17 10 -17 11 0 0 13 8 17 33 17 32 0 33 2 29 31 l-4
30 63 -7 c43 -4 61 -3 54 4 -5 5 -33 12 -62 14 -54 5 -63 -1 -63 -43 0 -16 -7
-19 -55 -19 l-55 0 0 58 c0 31 -3 67 -6 80 -6 20 -3 22 40 22 29 0 45 4 41 10
-3 5 -13 10 -22 10 -8 0 -28 11 -45 25 -16 14 -35 25 -41 24 -7 0 -2 -7 11
-16 25 -17 29 -33 9 -33 -10 0 -12 -12 -6 -52 11 -74 11 -148 0 -148 -5 0 -11
34 -13 75 -4 83 -20 113 -43 82 -16 -22 -9 -47 12 -47 11 0 13 -4 5 -13 -5 -7
-6 -21 -1 -32 10 -27 11 -35 0 -35 -5 0 -18 21 -29 48 -12 26 -21 39 -22 29 0
-10 8 -29 17 -43 12 -19 13 -28 4 -33 -6 -4 -9 -14 -6 -22 4 -11 -4 -13 -40
-11 -25 2 -43 8 -40 12 3 4 -2 10 -10 14 -8 3 -15 1 -15 -4 0 -6 -11 -10 -24
-10 -17 0 -25 7 -28 23 -6 29 13 47 47 47 23 0 25 -3 20 -22 -6 -18 -1 -16 24
12 22 25 30 45 31 72 0 41 -16 60 -23 26 -2 -13 -4 7 -5 45 0 40 3 65 9 62 5
-4 9 66 9 179 l0 186 -130 0 -130 0 0 46 c0 41 2 45 23 42 17 -2 23 -11 28
-43 l6 -40 2 38 1 37 68 0 c38 0 104 3 147 7 l77 6 -6 -31 c-5 -22 -1 -43 18
-81 20 -39 26 -65 26 -116 0 -73 16 -152 36 -175 7 -8 18 -36 24 -62 7 -27 13
-48 15 -48 6 0 98 96 106 111 5 10 9 78 10 151 1 124 2 130 14 93 11 -32 14
-35 14 -15 0 14 -8 43 -18 65 -10 22 -18 55 -19 73 -1 31 0 32 44 32 l44 0 0
189 c0 188 -2 202 -35 213 -6 2 -11 -1 -12 -6 -1 -5 -7 -13 -15 -17 -8 -6 -1
-7 20 -5 l32 3 0 -183 0 -184 -40 0 -41 0 1 190 c1 104 -1 193 -4 198 -3 5
-43 6 -89 4 -62 -3 -86 -1 -92 8 -5 8 -4 11 3 6 6 -3 13 -2 17 4 3 5 16 10 28
10 19 0 22 5 21 28 -1 15 -3 33 -3 40 -1 7 -6 10 -11 7 -6 -4 -10 8 -10 29 0
31 3 36 23 36 12 0 39 3 60 6 34 6 37 5 37 -18 0 -28 -35 -67 -42 -47 -2 6 -9
0 -15 -13 -7 -16 -8 -30 -2 -39 8 -11 13 -10 29 10 22 25 26 21 10 -10 -9 -16
-7 -19 10 -19 11 0 20 -4 20 -10 0 -5 5 -10 10 -10 6 0 10 33 10 80 l0 80 39
0 c22 0 42 4 45 8 3 5 2 58 -1 119 l-6 111 -48 23 c-27 12 -49 26 -49 30 0 20
-85 17 -257 -7 -177 -24 -222 -33 -177 -35 10 0 -6 -8 -36 -19 -30 -10 -50
-18 -45 -19 6 -1 124 13 263 30 l252 32 23 -20 c12 -11 32 -24 45 -28 21 -6
22 -11 22 -107 l0 -100 -29 4 c-17 2 -28 1 -25 -3 2 -4 -25 -7 -60 -8 -36 0
-76 -3 -90 -7 -20 -5 -26 -2 -26 10 0 13 12 16 70 16 39 0 73 0 76 -1 4 0 10
5 15 12 6 10 13 10 33 1 28 -13 35 -2 11 18 -8 7 -15 16 -15 20 0 11 -53 70
-63 70 -4 0 -28 -20 -54 -45 -25 -25 -50 -46 -57 -46 -6 -1 -38 -1 -71 -1
l-60 0 55 -7 c30 -4 53 -9 50 -10 -7 -2 -188 -23 -230 -26 -19 -1 -34 -5 -32
-9 1 -3 2 -8 2 -10 0 -1 24 1 53 6 28 4 80 10 115 13 35 3 68 6 74 8 6 1 13
-4 15 -12 4 -10 -3 -12 -30 -9 l-36 4 4 -56 c6 -76 10 -104 19 -118 5 -8 -1
-12 -17 -12 -21 0 -26 6 -32 38 -3 20 -17 54 -31 74 -13 21 -24 40 -24 43 0 3
17 6 38 7 33 1 32 2 -13 7 -27 4 -60 3 -73 -1 -13 -5 -47 -8 -77 -8 -30 0 -84
-7 -122 -16 -37 -8 -89 -14 -116 -12 -26 2 -47 0 -47 -4 0 -5 -9 -8 -20 -8
-11 0 -20 6 -20 13 0 10 40 17 158 27 86 7 152 15 145 17 -7 3 -162 -7 -345
-21 -527 -39 -678 -49 -683 -44 -6 5 200 24 420 38 88 6 232 17 320 25 88 8
192 16 230 17 49 1 57 3 25 5 -67 5 -92 12 -87 26 2 7 -6 20 -19 30 l-24 18
10 -26 c14 -37 14 -37 -32 -34 -24 1 -50 -1 -58 -4 -32 -13 -139 -27 -233 -32
-54 -2 -102 -7 -107 -10 -6 -4 -10 8 -10 25 0 18 4 29 10 25 6 -4 10 22 10 71
0 43 -3 75 -6 72 -3 -4 -5 -31 -5 -61 0 -47 -5 -62 -32 -97 l-32 -41 -6 38
c-4 27 -7 33 -13 22 -4 -10 -6 -25 -4 -35 3 -17 -5 -19 -87 -19 -49 -1 -105
-4 -122 -9 l-33 -8 0 66 0 65 43 5 c82 11 91 15 25 11 l-68 -4 0 89 0 90 38 1
c20 0 55 4 77 8 l40 9 -50 1 c-27 1 -61 4 -75 7 -20 5 -22 4 -10 -6 12 -10 11
-11 -7 -7 l-23 5 -2 -176 -2 -177 -6 160 -6 160 -2 -162 c-1 -123 -5 -163 -14
-163 -9 0 -13 19 -12 62 1 52 0 54 -3 13 -4 -53 -19 -71 -41 -53 -10 9 -12 8
-10 -2 2 -9 -8 -14 -29 -15 -18 -1 -33 1 -33 5 0 16 -83 9 -109 -9 -15 -11
-47 -21 -72 -24 l-44 -4 45 -1 c26 -1 50 2 55 6 6 5 33 6 60 3 l50 -5 -55 -7
c-73 -9 165 -1 310 11 242 19 520 33 527 27 12 -13 -3 -16 -107 -22 -104 -6
-248 -16 -490 -35 -69 -5 -174 -10 -235 -11 -106 -1 -111 -6 -24 -23 33 -7 39
-33 39 -160 l0 -92 33 3 c17 1 230 12 472 23 454 22 584 31 550 37 -11 2 -27
7 -35 10 -8 3 -23 5 -33 4 -9 -1 -17 3 -17 9 0 6 -5 8 -11 4 -8 -4 -7 -9 2
-15 8 -5 12 -9 9 -10 -44 -13 -274 -13 -278 0 -2 6 -14 11 -27 11 -58 0 -58
15 0 21 50 6 46 6 -25 4 -47 -1 -96 2 -109 7 -15 5 -28 4 -38 -3 -12 -10 -14
0 -12 67 2 81 18 124 46 124 11 0 10 -6 -6 -26 -12 -15 -21 -32 -21 -38 0 -6
4 -5 9 3 7 11 11 10 20 -7 16 -29 14 -42 -7 -50 -14 -5 -17 -13 -11 -32 6 -21
7 -21 8 -5 2 20 2 20 16 1 8 -11 15 -15 15 -10 0 6 -5 15 -12 22 -8 8 -9 15
-1 23 7 7 20 4 44 -10 19 -12 41 -21 49 -21 8 0 -5 9 -29 20 l-44 20 23 25
c46 49 93 20 76 -47 -4 -15 -1 -12 8 8 8 17 22 36 30 43 14 12 16 9 18 -20 1
-30 2 -28 7 11 6 43 7 44 19 23 9 -16 9 -23 2 -23 -6 0 -8 -4 -5 -10 3 -5 14
-10 25 -10 23 0 35 -29 15 -37 -9 -3 -24 -3 -35 0 -12 3 -18 1 -14 -5 4 -5 -4
-9 -17 -8 -59 5 -119 -1 -119 -11 0 -9 43 -10 158 -4 157 7 213 15 111 15
l-54 1 42 20 c42 19 107 21 173 5 14 -3 19 -4 13 0 -7 3 -13 11 -13 17 0 8
-21 11 -70 9 -71 -4 -85 4 -55 30 9 7 21 18 27 24 9 7 23 6 51 -3 21 -7 43
-11 48 -8 5 4 9 2 9 -4 0 -6 12 -8 31 -4 l31 6 -6 -59 c-3 -38 -2 -50 4 -34 4
14 8 38 9 54 1 31 11 31 15 -1 3 -15 12 -18 59 -18 32 0 57 3 57 8 0 15 22 6
27 -12 3 -11 15 -22 26 -26 22 -6 22 -6 2 -15 -12 -4 22 -6 80 -3 118 7 137
13 39 13 -100 0 -117 6 -112 41 4 24 1 29 -17 29 -28 0 -63 38 -71 77 -5 25
-2 32 14 37 11 4 26 14 34 24 11 15 9 14 -16 -2 -20 -13 -31 -15 -39 -7 -14
14 -8 19 32 23 32 3 37 -1 65 -46 25 -40 31 -59 30 -106 l-1 -57 28 10 c15 6
26 15 23 19 -8 13 14 17 114 20 l92 3 -2 -190 -3 -190 -62 -2 c-36 -1 -63 2
-63 7 0 6 19 11 43 12 40 1 50 2 72 9 6 1 -19 5 -55 8 -64 6 -65 7 -62 34 l3
27 -83 -2 -83 -2 76 -3 c74 -4 76 -5 72 -27 -4 -21 -12 -25 -69 -31 -64 -7
-89 -2 -79 16 4 5 1 9 -4 9 -6 0 -11 -7 -11 -16 0 -13 -8 -15 -35 -12 -19 2
-35 0 -35 -4 0 -15 -19 -8 -23 10 -4 15 -5 15 -6 1 -1 -13 -11 -17 -37 -17
-19 0 -38 -3 -42 -7 -4 -4 73 -5 171 -2 112 4 177 3 177 -3 0 -6 -32 -10 -72
-10 -40 0 -124 -3 -186 -7 -100 -5 -112 -4 -106 10 4 11 -2 16 -23 19 -27 3
-28 5 -31 66 -3 60 -2 62 22 62 14 0 27 4 31 9 8 14 -32 24 -50 13 -27 -14
-75 -2 -75 19 0 17 8 19 65 19 61 0 65 -1 71 -26 9 -36 24 -11 24 41 0 27 -3
35 -9 26 -8 -12 -10 -12 -14 0 -2 8 -2 4 0 -8 3 -22 0 -23 -64 -23 -38 0 -228
-9 -423 -20 -195 -11 -368 -20 -384 -20 -16 0 -27 -3 -23 -6 5 -5 353 9 525
21 66 5 72 4 72 -13 0 -17 -11 -20 -92 -26 -94 -6 -582 -36 -605 -36 -7 0 -13
11 -13 25 0 17 -5 25 -17 24 -11 0 -13 -3 -5 -6 9 -3 12 -43 12 -149 l0 -145
-108 2 c-145 3 -202 9 -202 21 0 7 21 8 58 4 l57 -6 -58 19 c-57 19 -112 49
-105 57 3 2 31 -5 63 -16 65 -22 95 -25 95 -9 0 5 6 7 13 3 9 -6 8 -3 -1 8
-10 13 -11 22 -3 37 20 37 13 47 -44 60 -51 12 -56 11 -77 -9 -13 -12 -30 -26
-39 -30 -14 -8 -16 -4 -12 30 3 25 1 40 -6 40 -7 0 -11 -29 -11 -82 0 -84 12
-130 23 -89 8 30 37 27 37 -4 0 -30 9 -29 -162 -11 -73 8 -182 18 -243 21
-128 7 -155 12 -155 26 0 6 5 7 10 4 7 -4 10 75 10 229 0 182 3 236 13 236 6
1 114 -12 240 -27 l227 -27 0 -131 0 -131 31 -2 c17 -1 28 1 25 6 -3 5 5 15
18 22 14 7 27 21 29 32 5 19 5 19 -16 1 -12 -10 -28 -26 -35 -36 -7 -9 -17
-17 -21 -17 -4 0 -5 194 -3 431 3 239 1 434 -4 439 -5 5 -63 20 -129 34 -135
29 -404 108 -387 114 6 2 69 -15 141 -37 131 -40 370 -95 378 -87 3 2 -40 14
-94 26 -54 12 -143 35 -198 51 -55 17 -107 31 -115 33 -68 17 -108 30 -127 42
-13 8 -34 14 -48 14 -14 0 -35 0 -47 0 -13 0 -70 15 -127 35 -116 39 -185 47
-81 10 76 -27 71 -33 -6 -8 -30 9 -56 14 -60 11 -6 -7 -6 -410 1 -417 3 -2 5
30 5 73 l0 76 28 -5 27 -5 -27 11 -28 11 0 125 c0 108 2 124 15 119 59 -22
156 -47 165 -41 6 4 24 4 40 0 l30 -7 0 -260 0 -260 -27 6 c-16 3 -79 15 -140
27 l-113 22 -3 276 -2 276 -3 -282z m676 61 l232 -57 0 -294 c0 -266 -2 -295
-16 -289 -9 3 -91 17 -182 31 -92 14 -193 30 -224 36 l-58 12 0 308 c0 170 3
309 8 309 4 0 112 -25 240 -56z m2132 -329 c0 -7 7 -18 15 -25 20 -17 19 -33
-2 -26 -10 3 -42 -1 -70 -8 -29 -8 -53 -12 -53 -10 0 3 18 25 41 49 39 41 69
50 69 20z m0 -180 c0 -47 -4 -65 -13 -65 -8 0 -13 13 -14 35 -1 19 3 35 8 35
5 0 9 14 9 30 0 17 2 30 5 30 3 0 5 -29 5 -65z m-149 -10 c12 -52 13 -65 2
-65 -7 0 -13 4 -13 9 0 5 -10 11 -22 13 -45 7 -46 108 0 108 14 0 21 -14 33
-65z m-2244 -87 c-2 -29 -3 -8 -3 47 0 55 1 79 3 53 2 -26 2 -71 0 -100z
m1913 103 c0 -47 -9 -62 -30 -51 -30 16 -133 8 -148 -12 -22 -30 -47 -22 -50
14 -3 38 10 47 68 49 25 0 65 6 90 13 67 20 70 19 70 -13z m74 7 c3 -13 6 -35
6 -49 0 -15 9 -38 20 -52 19 -23 19 -25 2 -29 -26 -7 -83 3 -76 13 3 5 -1 12
-9 15 -11 4 -13 17 -10 52 6 66 9 72 37 72 16 0 26 -7 30 -22z m-314 -43 c0
-18 -5 -25 -20 -25 -14 0 -20 7 -20 22 l0 22 -20 -22 c-12 -12 -27 -22 -36
-22 -11 0 -13 -7 -8 -27 9 -38 14 -41 14 -11 0 23 16 38 41 38 5 0 9 -25 9
-55 0 -68 -14 -71 -56 -14 -16 22 -35 46 -41 54 -7 7 -13 23 -13 34 0 22 17
28 98 30 49 1 52 0 52 -24z m-240 8 c0 -5 3 -18 6 -30 5 -19 2 -23 -18 -23
-13 0 -31 -9 -41 -20 -10 -12 -22 -18 -28 -14 -8 4 -7 9 2 15 11 7 10 9 -3 9
-25 0 -28 23 -5 48 20 21 87 33 87 15z m78 -15 c-2 -15 -11 -24 -25 -26 -19
-3 -23 1 -23 22 0 21 5 26 26 26 21 0 25 -4 22 -22z m-225 -18 c-13 -22 -25
-30 -45 -30 -15 0 -28 3 -28 7 0 17 46 53 67 53 24 0 24 0 6 -30z m-58 10 c-4
-6 -10 -8 -15 -5 -4 3 -10 -4 -13 -15 -4 -17 -14 -20 -61 -20 -31 0 -56 2 -56
4 0 2 -3 11 -6 19 -7 18 15 24 99 26 37 1 56 -3 52 -9z m-165 -4 c0 -2 3 -11
6 -20 7 -18 -16 -22 -158 -32 l-98 -6 0 26 c0 25 1 25 88 29 48 1 104 4 125 5
20 1 37 0 37 -2z m818 -6 c6 0 12 -7 12 -16 0 -12 -6 -15 -22 -10 -13 3 -29 6
-35 6 -7 0 -13 7 -13 16 0 12 6 15 23 10 12 -3 28 -6 35 -6z m-210 -42 c-3
-34 -20 -42 -26 -13 -5 22 5 45 18 45 7 0 10 -14 8 -32z m-440 -35 c2 -49 10
-85 19 -94 5 -5 7 23 5 61 -2 44 0 70 7 70 6 0 11 -29 13 -67 l3 -68 33 -3
c20 -2 32 -9 32 -18 0 -10 14 -14 53 -15 28 -1 -18 -6 -103 -10 -85 -4 -205
-13 -266 -19 -60 -5 -134 -10 -162 -10 l-53 0 3 91 3 91 105 3 c129 4 252 14
259 20 2 3 14 5 26 5 18 0 22 -6 23 -37z m512 -183 c0 -18 -7 -20 -54 -20 -30
0 -61 -3 -70 -6 -11 -4 -16 0 -16 14 0 19 7 21 63 25 34 2 65 4 70 5 4 1 7 -7
7 -18z m-160 -52 c-1 -20 -26 -48 -43 -48 -9 0 -19 -4 -22 -10 -3 -5 -19 -7
-35 -3 -19 3 -36 0 -47 -8 -9 -8 -14 -9 -10 -3 7 12 -21 29 -31 19 -3 -3 0 -5
7 -5 7 0 9 -5 6 -10 -4 -6 -10 -8 -15 -5 -19 12 -48 -14 -43 -37 4 -19 3 -20
-7 -8 -8 12 -10 6 -5 -24 6 -42 15 -61 15 -33 0 25 13 20 28 -10 19 -42 15
-52 -25 -55 -33 -3 -38 -6 -35 -26 1 -17 -4 -25 -18 -29 -18 -5 -20 -14 -21
-107 -1 -55 -3 -119 -6 -141 -2 -22 -1 -59 2 -82 6 -40 9 -43 36 -43 36 0 36
-7 2 -69 l-27 -49 -143 0 c-142 -1 -143 0 -129 20 8 11 12 27 8 36 -5 13 -7
12 -13 -4 -6 -15 -8 -11 -8 15 -1 26 2 32 15 27 9 -3 20 -6 26 -6 6 0 5 -7 -3
-17 -8 -11 -3 -9 11 4 14 12 28 22 33 22 4 1 38 1 76 1 l69 0 7 63 c9 86 8
195 -4 324 -1 12 -89 21 -253 26 l-98 2 0 121 0 122 128 6 c70 3 155 9 190 11
59 5 62 5 63 -17 0 -13 0 -71 -1 -130 -1 -70 3 -108 9 -108 10 0 16 82 15 213
-1 42 2 47 21 47 13 0 38 3 56 6 l34 5 -24 -20 c-13 -12 -18 -21 -11 -21 7 0
19 8 26 18 9 12 32 19 86 23 40 3 81 6 91 7 9 1 17 -4 17 -10z m-86 -77 c3 -5
0 -11 -7 -14 -22 -8 -48 -73 -41 -102 3 -14 10 -25 16 -25 5 0 7 4 3 10 -3 5
7 5 25 -1 32 -12 55 -42 46 -62 -2 -7 -5 -6 -5 4 -1 9 -11 24 -23 35 -23 19
-23 19 -5 -2 38 -45 5 -113 -48 -100 -39 10 -52 48 -32 92 10 19 13 33 8 30
-14 -9 -21 20 -11 53 9 31 49 91 61 91 4 0 10 -4 13 -9z m-840 -27 c19 -7 21
-20 4 -26 -7 -3 -22 3 -32 13 -16 16 -17 19 -4 19 9 0 23 -3 32 -6z m-12 -46
c26 -29 14 -38 -33 -24 -40 12 -62 32 -52 49 8 14 67 -3 85 -25z m1598 -5 c0
-3 -6 -14 -14 -22 -7 -9 -17 -27 -20 -41 -6 -19 -5 -21 3 -10 12 17 13 4 2
-25 -7 -18 -10 -15 -25 19 -22 53 -12 86 25 86 16 0 29 -3 29 -7z m97 -25 l33
-32 0 -160 c0 -108 4 -156 10 -146 8 13 10 12 10 -2 0 -10 -4 -18 -9 -18 -5 0
-13 -9 -16 -20 -16 -50 -25 -11 -25 106 l0 127 -50 -5 -50 -5 -1 36 c0 30 -2
33 -9 16 -7 -14 -8 -8 -4 20 4 22 10 44 15 50 5 5 9 22 9 37 0 24 4 28 27 28
17 0 39 -12 60 -32z m43 7 c0 -14 -4 -25 -8 -25 -5 0 -19 11 -32 25 l-23 25
31 0 c27 0 32 -4 32 -25z m-2230 -70 c184 -11 331 -28 318 -38 -9 -6 -6 -7 7
-2 24 8 21 8 72 6 l42 -1 1 -210 0 -209 -285 0 -285 0 0 83 c0 45 -3 151 -7
235 l-6 152 24 -5 c13 -3 67 -7 119 -11z m2237 -167 c-2 -35 -3 -9 -3 57 0 66
1 94 3 63 2 -32 2 -86 0 -120z m-337 89 c0 -35 -3 -132 -7 -215 l-6 -152 -77
0 c-85 0 -90 4 -90 73 0 15 -9 36 -20 47 -11 11 -20 31 -20 44 0 14 -4 27 -9
30 -5 4 -12 25 -16 49 -7 42 -31 81 -45 72 -4 -3 -7 3 -6 13 1 23 -69 28 -118
8 -35 -15 -36 -14 -36 7 0 12 9 37 20 55 l20 32 205 0 205 0 0 -63z m-1356 32
c23 -1 17 -4 -24 -13 l-55 -11 48 -3 47 -3 0 -177 0 -177 -50 -1 -50 -1 0 69
0 69 38 -5 37 -5 -37 10 -38 11 0 108 c0 60 -3 116 -7 126 -5 15 -2 16 27 11
18 -4 47 -8 64 -8z m396 -15 l120 -7 0 -177 0 -177 -127 -7 c-71 -4 -179 -6
-240 -5 l-113 1 0 196 0 195 120 -7 c66 -3 174 -9 240 -12z m1192 -55 l38 2 0
-75 c0 -56 -4 -75 -15 -80 -8 -3 -15 -16 -15 -28 0 -16 3 -19 8 -10 6 9 12 5
21 -14 11 -24 9 -30 -8 -48 -25 -24 -30 -20 -33 27 -2 20 -8 37 -14 37 -14 0
-35 71 -42 144 -4 48 -3 58 8 51 8 -5 31 -8 52 -6z m-858 -216 c-47 -63 -50
-65 -29 -23 20 40 44 70 56 70 5 0 -7 -21 -27 -47z m412 -12 c-4 -6 -19 -11
-33 -11 l-25 0 23 19 c24 19 48 13 35 -8z m-1640 -131 c17 0 20 -65 3 -76 -8
-4 -8 -9 0 -17 6 -6 11 -19 11 -29 0 -14 -8 -18 -41 -18 l-41 0 7 68 c9 78 12
85 32 78 8 -3 21 -6 29 -6z m54 -65 c0 -60 -3 -75 -15 -75 -12 0 -15 15 -15
75 0 60 3 75 15 75 12 0 15 -15 15 -75z m1790 35 l0 -40 -71 0 c-61 0 -70 2
-65 16 3 9 6 27 6 40 0 23 3 24 65 24 l65 0 0 -40z m-206 24 c38 -6 46 -10 46
-28 0 -38 -14 -44 -110 -54 -103 -10 -120 -5 -120 34 0 51 55 65 184 48z"/>
<path d="M1535 2018 c17 -10 42 -12 100 -9 8 1 15 6 15 11 0 6 -7 10 -15 10
-8 0 -15 -6 -15 -12 0 -9 -3 -10 -8 -2 -4 6 -27 11 -52 12 -38 1 -42 0 -25
-10z"/>
<path d="M1290 2008 c0 -14 9 -18 38 -19 20 -1 51 -2 67 -4 17 -1 37 1 45 5 8
5 -18 8 -60 9 -48 0 -76 5 -82 13 -6 10 -8 8 -8 -4z"/>
<path d="M1902 1628 c4 -43 32 -46 33 -3 0 21 -5 31 -18 33 -15 3 -18 -2 -15
-30z"/>
<path d="M2380 1421 c0 -44 5 -83 10 -86 6 -4 10 25 10 79 0 51 -4 86 -10 86
-6 0 -10 -33 -10 -79z"/>
<path d="M1220 1426 c0 -99 3 -176 8 -172 4 4 8 12 8 17 1 5 2 12 3 15 0 4 8
1 16 -6 13 -11 15 -7 15 24 0 35 -14 49 -23 24 -12 -34 -16 8 -10 103 4 68 9
95 14 79 6 -22 7 -20 8 13 1 35 3 37 33 37 42 0 26 14 -18 16 -20 0 -40 7 -45
15 -5 8 -9 -56 -9 -165z"/>
<path d="M1340 1571 c0 -9 178 -26 187 -18 2 3 -26 8 -64 11 -37 4 -80 9 -95
11 -16 3 -28 1 -28 -4z"/>
<path d="M1568 1465 l3 -105 -135 0 -136 0 0 92 c0 115 -9 111 -12 -5 -2 -65
0 -88 10 -92 27 -10 271 -5 277 6 11 17 11 187 0 198 -7 7 -9 -25 -7 -94z"/>
<path d="M1320 1467 c0 -7 6 -19 13 -26 10 -11 10 -13 0 -7 -7 4 -13 2 -13 -3
0 -6 11 -11 25 -11 21 0 25 5 25 28 1 23 2 24 11 10 12 -22 39 -24 39 -3 0 16
12 18 47 9 13 -4 20 -10 17 -15 -3 -5 0 -9 5 -9 6 0 11 8 11 19 0 17 -9 19
-90 20 -69 1 -90 -1 -90 -12z"/>
<path d="M1316 1395 c-4 -11 2 -15 24 -15 18 0 30 5 30 13 0 18 -47 20 -54 2z"/>
<path d="M1380 1394 c0 -11 16 -14 71 -14 61 0 69 2 56 14 -9 9 -35 15 -71 15
-42 0 -56 -4 -56 -15z"/>
<path d="M1025 2485 c0 -286 1 -402 2 -257 2 145 2 379 0 520 -1 141 -2 23 -2
-263z"/>
<path d="M1232 2984 c-2 -21 -26 -39 -41 -30 -4 3 -7 -3 -8 -12 0 -9 -4 -73
-8 -142 -4 -69 -5 -123 -2 -120 3 3 9 60 13 125 6 112 14 145 35 145 5 0 9 -9
9 -20 0 -11 -5 -20 -12 -20 -6 0 -9 -2 -7 -5 3 -2 39 2 80 10 l74 14 -62 -5
-62 -5 -4 43 c-2 24 -4 33 -5 22z"/>
<path d="M1619 2937 c-2 -41 0 -67 6 -67 6 0 9 20 7 48 -5 84 -8 88 -13 19z"/>
<path d="M2618 2975 c-65 -13 -144 -27 -175 -31 -43 -5 -53 -9 -38 -15 19 -7
19 -8 -2 -8 -12 -1 -24 -7 -26 -13 -3 -8 -6 -5 -6 5 -1 10 -5 15 -11 12 -6 -4
-10 -74 -10 -178 0 -102 4 -166 9 -158 5 7 14 10 20 7 8 -5 11 37 11 148 0
153 0 156 23 161 12 2 105 18 206 35 101 17 188 33 192 36 5 3 9 -70 10 -163
0 -103 4 -160 9 -148 7 17 9 17 9 3 1 -10 11 -23 24 -29 20 -11 21 -11 8 5
-10 12 -15 59 -17 183 -2 91 -6 168 -9 171 -3 3 -5 -3 -5 -14 0 -14 -2 -16 -9
-5 -14 22 -90 21 -213 -4z"/>
<path d="M1941 2953 c-1 -29 2 -33 27 -34 15 -1 0 -6 -33 -12 -33 -5 -66 -17
-73 -26 -8 -9 -11 -10 -7 -3 3 6 1 12 -4 12 -7 0 -11 -47 -11 -138 l0 -137
133 12 c72 6 144 12 159 12 l26 1 -1 154 c-2 123 -5 152 -15 144 -7 -6 -38 -8
-75 -5 -40 3 -51 3 -32 -3 29 -7 30 -8 4 -9 -57 -2 -88 10 -92 38 -4 23 -4 22
-6 -6z m194 -160 c0 -71 -4 -131 -8 -134 -4 -3 -28 -7 -53 -7 -25 -1 -75 -7
-112 -12 -37 -5 -73 -10 -79 -10 -10 0 -13 30 -13 120 l0 119 38 7 c20 4 42
10 47 14 6 3 26 8 45 9 19 1 53 6 75 11 22 4 45 8 50 9 6 1 10 -47 10 -126z"/>
<path d="M1378 2908 c-5 -76 -4 -159 3 -170 7 -11 9 -11 9 1 0 9 7 11 23 8 12
-4 29 -2 37 3 11 7 5 10 -22 10 l-38 0 0 80 0 81 38 -5 c29 -4 32 -4 12 3 -44
16 -60 13 -62 -11z"/>
<path d="M2941 2760 c0 -119 2 -170 9 -160 12 18 12 269 0 308 -5 16 -9 -42
-9 -148z"/>
<path d="M242 2870 c-1 -26 2 -40 11 -40 7 0 12 14 11 37 -1 51 -20 53 -22 3z"/>
<path d="M1739 2860 c-1 -16 -3 -34 -4 -40 -1 -5 -3 -37 -4 -70 -1 -57 -2 -60
-25 -60 -14 0 -27 -3 -30 -8 -2 -4 13 -6 35 -4 l39 4 0 104 c0 57 -2 104 -5
104 -3 0 -6 -13 -6 -30z"/>
<path d="M1788 2871 l33 -15 -3 -90 c-3 -88 -4 -91 -26 -89 -13 2 -21 -1 -17
-7 3 -6 13 -10 21 -10 8 0 14 -8 14 -17 0 -15 2 -16 10 -3 5 8 10 67 10 130
l0 115 -37 1 -37 1 32 -16z"/>
<path d="M1291 2849 c-34 -14 -19 -23 25 -14 28 5 34 9 23 16 -17 10 -17 10
-48 -2z"/>
<path d="M110 2806 c0 -7 10 -16 23 -19 12 -3 36 -10 54 -15 24 -8 36 -7 50 5
13 10 14 13 3 10 -8 -2 -39 4 -69 15 -65 22 -61 21 -61 4z"/>
<path d="M2173 2752 c0 -37 2 -57 4 -44 6 29 16 28 80 -8 29 -17 53 -28 53
-25 0 3 -25 19 -55 36 -45 25 -55 36 -61 65 -11 59 -22 47 -21 -24z"/>
<path d="M1303 2734 c-4 -11 -8 -12 -13 -4 -5 8 -22 9 -55 4 -30 -4 -42 -9
-34 -14 17 -9 95 -7 105 3 4 4 18 7 31 7 13 0 23 5 23 10 0 16 -50 11 -57 -6z"/>
<path d="M1450 2702 c0 -17 -6 -22 -27 -23 -27 -2 -27 -2 -3 -6 14 -2 30 -11
37 -20 10 -13 11 -8 6 23 -7 45 -13 57 -13 26z"/>
<path d="M120 2682 c8 -5 49 -17 90 -27 41 -9 84 -19 95 -22 11 -3 17 -2 14 1
-4 4 -44 16 -90 27 -46 11 -93 22 -104 25 -15 4 -16 3 -5 -4z"/>
<path d="M1115 2641 l-30 -6 0 -168 -1 -167 3 164 3 165 58 6 c31 4 62 8 67
10 18 6 -69 3 -100 -4z"/>
<path d="M2131 2624 c14 -4 16 -24 17 -123 l0 -119 -30 -6 c-17 -3 -47 -7 -67
-7 -20 -1 -28 -3 -17 -6 10 -3 43 -2 73 2 l54 7 -3 126 c-3 118 -4 127 -23
129 -13 1 -14 0 -4 -3z"/>
<path d="M1510 2600 c13 -9 13 -11 0 -20 -13 -8 -12 -10 3 -10 9 0 17 -4 17
-10 0 -5 -8 -10 -17 -10 -15 0 -15 -1 2 -13 21 -16 76 -8 83 12 3 10 0 10 -16
0 -23 -15 -42 -5 -25 12 21 21 3 49 -31 49 -24 0 -28 -3 -16 -10z"/>
<path d="M2212 2556 c-6 -13 -13 -45 -16 -72 l-5 -49 13 55 c7 30 17 63 21 73
11 26 0 20 -13 -7z"/>
<path d="M2310 2485 c-5 -81 -5 -93 5 -83 3 3 5 41 3 84 l-3 79 -5 -80z"/>
<path d="M170 2528 c47 -11 92 -24 101 -28 9 -5 22 -4 29 0 10 6 8 10 -11 13
-13 3 -56 12 -95 21 -40 9 -80 16 -90 15 -11 -1 19 -10 66 -21z"/>
<path d="M1151 2512 c-1 -7 -5 -11 -10 -7 -10 5 -41 -20 -41 -34 0 -4 10 -16
22 -27 12 -10 18 -14 15 -7 -5 7 -1 12 10 12 42 1 94 9 101 16 4 3 -26 3 -67
-1 -61 -6 -73 -4 -69 7 3 10 27 15 81 17 48 2 77 7 77 14 0 7 -18 9 -54 5 -37
-4 -56 -2 -60 6 -3 8 -5 8 -5 -1z"/>
<path d="M1064 2400 c0 -58 1 -81 3 -52 2 28 2 76 0 105 -2 28 -3 5 -3 -53z"/>
<path d="M140 2391 c8 -4 65 -18 127 -31 l111 -23 4 -59 c2 -33 0 -65 -4 -71
-4 -6 -3 -14 3 -18 14 -8 0 -39 -20 -40 -12 0 -11 -2 4 -9 18 -7 18 -8 -8 -15
-36 -10 -17 -23 23 -17 l30 4 -1 72 c0 39 -4 93 -7 120 l-7 50 -105 17 c-58
10 -118 20 -135 23 -19 4 -24 3 -15 -3z"/>
<path d="M2483 2383 c20 -2 54 -2 75 0 20 2 3 4 -38 4 -41 0 -58 -2 -37 -4z"/>
<path d="M1928 2353 c18 -2 45 -2 60 0 15 2 0 4 -33 4 -33 0 -45 -2 -27 -4z"/>
<path d="M2930 2250 c0 -46 2 -81 5 -79 7 8 8 149 1 156 -3 4 -6 -31 -6 -77z"/>
<path d="M2903 2260 c0 -36 2 -50 4 -32 2 17 2 47 0 65 -2 17 -4 3 -4 -33z"/>
<path d="M7 2243 c-4 -3 -7 -37 -7 -74 0 -58 3 -70 20 -79 11 -6 20 -8 20 -5
0 3 15 -1 33 -8 24 -9 55 -10 125 -4 51 5 92 10 90 12 -2 2 -61 5 -131 7 -70
3 -133 10 -138 15 -6 6 -9 39 -7 77 1 36 3 66 2 66 0 0 -4 -3 -7 -7z"/>
<path d="M1130 2095 c0 -101 -3 -135 -12 -135 -8 0 -9 -3 -3 -8 6 -4 12 -18
13 -32 9 -60 12 -22 12 138 0 95 -2 172 -5 172 -3 0 -5 -61 -5 -135z"/>
<path d="M320 1996 c0 -53 4 -98 10 -101 6 -3 10 -17 10 -30 0 -13 5 -27 10
-30 6 -3 10 -2 10 3 0 6 9 8 20 5 19 -5 19 -6 -3 -24 -16 -14 -17 -17 -4 -13
20 7 22 -6 5 -53 -10 -28 -17 -33 -45 -33 -23 0 -33 5 -33 15 0 8 -7 15 -15
15 -8 0 -15 -4 -15 -10 0 -5 5 -10 10 -10 6 0 10 -28 10 -65 0 -64 0 -64 -32
-74 l-33 -9 30 -1 c29 -1 30 -3 28 -38 -2 -41 4 -73 15 -73 4 0 5 27 4 60 -2
35 0 60 6 60 17 0 20 35 5 49 -11 10 -12 15 -3 21 9 6 9 9 -1 15 -17 11 14 23
59 24 32 1 32 1 34 56 2 88 3 90 11 96 5 4 7 15 4 25 -4 17 -6 17 -12 -3 -8
-26 -20 -30 -29 -8 -3 8 2 18 11 23 17 10 10 32 -10 32 -8 0 -8 -3 2 -9 10 -7
10 -10 1 -16 -20 -12 -30 16 -30 85 0 72 -8 110 -21 110 -5 0 -9 -42 -9 -94z"/>
<path d="M2458 2073 c21 -4 32 -33 12 -33 -5 0 -10 5 -10 11 0 8 -5 8 -15 -1
-12 -10 -15 -10 -15 4 0 9 -5 16 -11 16 -6 0 -8 -7 -5 -16 3 -9 6 -18 6 -20 0
-2 15 -4 33 -4 26 0 36 6 45 25 11 24 11 25 -26 24 -23 -1 -29 -3 -14 -6z"/>
<path d="M2164 2061 c4 -5 0 -12 -6 -14 -9 -4 -10 -6 -1 -6 6 -1 14 3 18 9 3
5 12 7 19 4 8 -3 17 -1 21 5 4 7 -5 11 -25 11 -17 0 -29 -4 -26 -9z"/>
<path d="M2635 2050 c5 -9 -16 -14 -52 -13 -7 1 -13 -3 -13 -8 0 -5 -9 -9 -19
-9 -23 0 -31 -19 -30 -73 1 -49 7 -40 11 18 l4 40 54 7 c30 3 75 6 99 7 l44 1
-6 -42 c-6 -48 14 -105 26 -74 4 10 3 15 -3 11 -6 -4 -9 18 -9 54 1 47 5 61
18 64 9 3 -12 3 -46 0 -37 -2 -63 0 -63 6 0 5 10 12 23 14 15 3 12 5 -11 6
-20 0 -31 -3 -27 -9z"/>
<path d="M191 2018 c-1 -38 -1 -38 38 -38 40 0 40 0 44 -42 l4 -43 1 47 2 47
-37 3 c-33 3 -39 7 -44 33 -6 29 -7 29 -8 -7z"/>
<path d="M2823 1975 c0 -33 2 -45 4 -27 2 18 2 45 0 60 -2 15 -4 0 -4 -33z"/>
<path d="M2470 2010 l-25 -8 25 -2 c18 -2 15 -5 -15 -10 l-40 -7 43 -2 c36 -1
42 2 42 19 0 11 -1 20 -2 19 -2 -1 -14 -5 -28 -9z"/>
<path d="M92 1965 c-1 -11 3 -38 7 -60 7 -34 9 -35 9 -10 0 35 -15 101 -16 70z"/>
<path d="M130 1958 c0 -5 13 -8 29 -8 36 0 68 -26 77 -62 l6 -28 -70 0 c-50 0
-71 -4 -75 -14 -4 -10 -19 -13 -54 -10 l-48 3 53 -10 c45 -9 52 -14 50 -31 -3
-18 4 -20 70 -24 47 -3 72 -1 72 5 0 7 -26 11 -65 11 l-65 0 0 30 0 30 73 0
c47 -1 79 -6 91 -15 23 -18 36 -19 36 -4 0 5 -4 7 -10 4 -5 -3 -10 -1 -10 5 0
6 -4 9 -9 6 -14 -9 -34 22 -28 44 4 15 -2 26 -21 38 l-25 16 24 7 c16 4 3 7
-39 10 -34 2 -62 1 -62 -3z"/>
<path d="M1080 1914 c-6 -14 -10 -32 -10 -41 0 -11 -6 -14 -21 -10 -15 4 -19
3 -12 -4 6 -6 34 -12 64 -13 30 -2 41 -2 26 1 -27 4 -29 7 -25 49 4 49 -7 58
-22 18z"/>
<path d="M2630 1901 c8 -5 33 -5 55 -1 40 8 40 8 -15 9 -35 0 -50 -3 -40 -8z"/>
<path d="M812 1770 c-1 -39 2 -49 8 -34 4 11 5 36 0 55 -7 31 -8 29 -8 -21z"/>
<path d="M1215 1807 c-31 -18 -35 -28 -35 -84 0 -39 -5 -55 -17 -63 -12 -8
-13 -10 -3 -7 22 5 40 46 40 90 0 28 6 44 23 58 25 21 22 24 -8 6z"/>
<path d="M2210 1739 c0 -52 8 -62 15 -17 2 12 5 32 7 42 2 10 -3 21 -9 23 -9
3 -13 -10 -13 -48z"/>
<path d="M27 1773 c-4 -3 -7 -105 -7 -225 0 -209 1 -218 19 -218 15 0 22 -11
30 -42 10 -42 10 -42 6 -5 -3 28 0 37 11 37 8 0 12 5 9 10 -3 6 -20 10 -36 10
l-30 0 3 220 c2 121 3 220 2 220 0 0 -4 -3 -7 -7z"/>
<path d="M2095 1767 c-3 -7 2 -30 10 -51 12 -28 19 -36 27 -28 8 8 7 16 -3 28
-9 12 -10 15 -1 10 8 -5 12 0 12 13 0 25 -38 49 -45 28z"/>
<path d="M2570 1433 c0 -75 2 -134 5 -131 3 2 6 55 8 116 2 62 7 115 10 119 4
3 19 8 33 9 54 6 50 24 -4 24 l-52 0 0 -137z"/>
<path d="M2901 1550 c0 -33 36 -152 42 -137 3 8 -5 46 -18 84 -13 37 -24 61
-24 53z"/>
<path d="M1960 1465 c-12 -13 -27 -23 -33 -22 -5 1 -12 -4 -14 -11 -3 -8 12
-5 43 9 54 23 72 36 34 24 -22 -7 -23 -6 -11 9 21 25 7 19 -19 -9z"/>
<path d="M2140 1470 c0 -5 15 -17 33 -26 17 -9 40 -23 50 -32 9 -8 17 -11 17
-6 -1 12 -100 75 -100 64z"/>
<path d="M323 1453 c5 -8 -5 -13 -30 -16 -21 -2 -1 -4 45 -5 46 -1 81 2 78 6
-3 5 -20 8 -38 7 -18 -2 -39 3 -47 9 -11 8 -13 8 -8 -1z"/>
<path d="M381 1399 c-1 -19 -8 -28 -23 -33 -34 -9 -180 -7 -174 2 2 4 1 14 -5
22 -6 11 -9 8 -9 -12 l0 -28 100 0 c62 0 100 -4 100 -10 0 -6 -7 -27 -15 -47
-8 -20 -13 -38 -10 -41 2 -3 12 12 20 34 9 21 20 48 26 59 5 12 6 31 0 50 -9
30 -9 30 -10 4z"/>
<path d="M215 1329 l-110 -5 98 -2 97 -2 -1 -52 c-2 -84 -11 -111 -39 -119
-21 -6 -18 -7 15 -8 l40 -1 -4 86 c-2 64 0 89 10 95 22 13 9 14 -106 8z"/>
<path d="M2957 1283 c-4 -3 -1 -13 6 -21 9 -13 9 -14 0 -8 -7 4 -13 3 -13 -3
0 -5 -3 -16 -6 -25 -11 -29 15 -17 31 14 19 37 6 67 -18 43z"/>
<path d="M400 1275 c0 -6 4 -26 10 -45 6 -22 6 -38 0 -44 -9 -9 -15 4 -11 27
1 4 -5 17 -13 28 -22 32 -28 -2 -8 -45 11 -24 22 -34 32 -30 12 4 13 3 3 -7
-7 -7 -13 -21 -13 -31 0 -11 -7 -18 -19 -18 -11 0 -22 -4 -25 -8 -2 -4 -46 -4
-98 0 -51 4 -96 4 -100 0 -4 -4 25 -8 65 -10 39 -2 79 -8 90 -13 13 -7 23 -7
32 1 8 7 32 13 53 13 29 2 38 6 34 16 -4 10 7 12 48 10 38 -3 55 0 58 9 3 11
-6 13 -39 12 -72 -4 -77 -2 -75 25 0 14 3 25 6 25 12 0 2 63 -13 78 -10 9 -17
12 -17 7z"/>
<path d="M2074 1196 c-3 -13 -22 -39 -41 -57 -26 -24 -34 -28 -29 -15 7 20 7
20 -14 1 -12 -11 -17 -21 -11 -23 7 -2 5 -10 -5 -19 -8 -8 -13 -18 -10 -20 10
-10 114 103 120 130 8 33 -1 37 -10 3z"/>
<path d="M813 1140 c-1 -11 2 -20 8 -20 5 0 9 -13 9 -29 0 -28 -1 -29 -39 -24
-35 5 -39 3 -43 -21 -6 -29 -6 -28 87 -46 33 -6 76 -15 96 -19 20 -5 81 -5
135 0 145 12 362 13 419 3 39 -7 -26 -12 -290 -22 -187 -7 -383 -13 -435 -13
-62 0 -88 -3 -75 -9 15 -6 7 -9 -30 -9 -36 -1 -46 -4 -35 -11 13 -8 12 -10 -2
-10 -13 0 -18 -8 -17 -27 1 -23 3 -24 6 -6 4 20 11 21 126 27 364 17 570 26
621 26 l56 0 0 -60 c0 -43 -4 -60 -13 -60 -7 0 -23 -9 -35 -20 -19 -18 -22
-32 -22 -91 l0 -69 -34 14 c-37 15 -141 24 -153 13 -3 -4 -20 -7 -37 -7 l-31
0 26 18 c19 12 24 22 20 35 -4 10 -9 17 -12 15 -3 -2 -14 5 -23 15 -13 13 -17
26 -12 47 3 17 1 30 -4 30 -6 0 -10 12 -11 28 0 15 -5 36 -10 47 -6 14 -7 6
-2 -25 7 -50 7 -109 -1 -117 -3 -3 -16 1 -28 9 -35 22 -75 30 -75 14 0 -8 9
-11 24 -8 15 3 25 -1 29 -12 3 -9 10 -13 15 -10 6 3 15 1 22 -4 7 -5 24 -12
40 -16 15 -3 27 -13 27 -21 0 -23 -54 -46 -92 -39 -25 4 -29 3 -18 -5 8 -6 23
-11 34 -11 10 0 16 -5 13 -12 -3 -10 10 -12 52 -11 85 3 91 6 31 13 -43 5 -30
7 59 7 72 1 109 -2 100 -8 -10 -6 -5 -9 19 -9 l32 0 2 -72 c1 -40 2 -92 3
-115 1 -24 -2 -43 -7 -43 -4 0 -8 -7 -8 -16 0 -11 -5 -14 -16 -10 -9 3 -23 6
-32 7 -14 0 -13 2 3 8 16 7 14 9 -15 14 -18 4 -35 5 -38 2 -3 -3 3 -5 14 -5
28 -1 -52 -27 -120 -39 -64 -12 -83 -8 -45 9 20 9 18 9 -14 5 -21 -4 -46 -9
-54 -12 -12 -5 -14 -3 -8 7 6 10 0 11 -30 6 -25 -5 -35 -4 -30 3 3 6 0 11 -7
11 -10 0 -12 21 -10 90 3 62 0 90 -7 90 -8 0 -11 -46 -9 -157 l3 -158 110 -1
110 0 -105 5 c-96 5 -105 8 -105 26 0 23 19 28 155 45 52 7 99 16 104 21 6 5
45 9 88 9 76 0 78 -1 78 -24 0 -14 -5 -28 -12 -32 -6 -4 -86 -7 -177 -8 l-166
0 143 -3 c83 -2 142 -8 142 -13 0 -6 -11 -10 -24 -10 -14 0 -27 -4 -31 -10 -3
-5 -12 -7 -19 -4 -8 3 -31 -2 -52 -11 -45 -19 -219 -21 -241 -3 -10 8 -13 70
-13 260 l0 250 -112 -7 c-62 -4 -115 -9 -117 -11 -2 -2 46 -4 107 -4 l112 0 0
-55 0 -55 -67 -1 c-38 0 -90 -4 -118 -9 -46 -7 -42 -8 45 -10 l95 -4 -75 -6
-75 -6 66 -2 c37 -1 81 -5 98 -8 l31 -6 0 -158 0 -158 -45 -7 c-28 -4 -43 -10
-39 -17 4 -7 -7 -8 -36 -3 -32 5 -41 4 -35 -5 6 -9 -3 -11 -33 -8 -23 2 -38
-1 -35 -6 4 -5 -3 -7 -15 -4 -13 4 -27 -1 -38 -13 -10 -11 -12 -19 -6 -19 7 0
12 4 12 9 0 9 45 16 150 26 34 4 39 2 20 -4 -14 -5 -43 -10 -65 -11 l-40 -3
40 -7 c22 -4 34 -8 26 -9 -18 -1 -175 -81 -233 -117 -64 -41 -28 -41 45 -1 34
19 103 56 152 82 50 27 104 55 120 64 24 13 55 15 155 13 128 -3 164 -13 117
-31 -15 -6 -27 -15 -27 -20 0 -20 29 -30 120 -40 52 -6 132 -21 177 -32 46
-11 87 -18 92 -14 21 12 34 112 24 175 -5 33 -6 63 -2 66 5 2 6 11 3 18 -4 12
10 14 73 11 61 -2 67 -1 28 4 l-50 7 45 6 c26 3 17 4 -22 2 l-67 -4 -3 52 c-2
44 9 145 17 156 5 6 129 -29 158 -44 23 -13 28 -21 25 -47 l-3 -32 -70 -3
c-38 -2 -74 -7 -79 -12 -4 -4 27 -6 73 -3 l81 6 0 -32 c0 -18 -6 -34 -14 -37
-8 -3 -17 -13 -20 -21 -5 -12 -4 -13 7 -5 8 7 16 9 19 6 3 -3 9 7 12 21 4 17
11 23 19 18 9 -5 8 -2 -1 9 -7 9 -12 32 -10 52 2 28 5 33 15 24 8 -6 11 -13 8
-16 -10 -10 28 -42 49 -42 16 1 13 4 -12 15 -18 8 -31 18 -28 23 3 5 -9 25
-26 46 l-30 37 28 -7 c16 -4 53 -15 83 -26 62 -21 69 -22 55 -8 -18 18 -185
69 -265 82 -56 9 -79 17 -79 27 0 7 -8 20 -17 27 -15 11 -15 15 -5 22 10 7 5
12 -19 21 -18 6 -42 19 -52 29 -19 16 -20 16 -8 -5 6 -12 19 -24 28 -28 21 -7
65 -94 55 -109 -13 -20 -20 -154 -10 -184 4 -13 3 -22 -2 -22 -6 0 -10 -3 -9
-7 4 -27 -16 -53 -40 -54 -25 -1 -25 -1 6 -10 27 -8 31 -13 31 -44 0 -42 1
-42 -153 -50 -113 -6 -170 2 -157 21 4 6 41 21 82 34 41 13 80 27 86 32 6 4
20 5 29 1 13 -4 16 -3 11 5 -4 8 0 12 11 12 14 0 15 2 5 9 -8 4 -12 17 -10 28
1 11 -4 28 -12 38 -14 17 -13 18 4 12 15 -6 17 -5 7 6 -6 8 -10 25 -10 38 1
13 -1 86 -5 163 -6 124 -5 138 9 132 12 -4 14 -2 6 13 -6 10 -7 22 -3 26 4 5
1 5 -5 1 -8 -4 -13 -1 -13 8 0 9 19 25 41 37 44 22 49 22 223 0 112 -14 120
-17 134 -48 l12 -28 -5 26 c-3 18 0 29 11 33 28 11 44 7 38 -9 -5 -13 -9 -13
-22 -3 -13 11 -15 10 -10 -2 3 -8 11 -40 18 -72 8 -33 17 -55 24 -52 6 2 19
-10 29 -27 10 -18 20 -29 23 -26 4 3 -3 17 -14 32 -35 44 -53 155 -25 155 8 0
18 -21 48 -103 9 -26 28 -61 42 -78 25 -30 25 -52 0 -31 -18 15 -65 23 -72 11
-4 -5 3 -9 15 -9 11 0 47 -11 80 -25 33 -14 67 -25 77 -24 12 0 13 2 5 6 -41
16 -126 128 -137 180 -2 10 -6 26 -10 36 -5 13 -2 17 13 17 12 0 23 4 26 9 3
4 -7 6 -22 3 -19 -3 -24 -1 -17 6 6 6 24 12 40 14 17 2 -26 9 -95 17 -87 10
-119 16 -105 22 12 6 -15 8 -72 6 -50 -1 -89 1 -86 6 2 4 0 7 -6 7 -5 0 -13
-4 -16 -10 -3 -5 -24 -10 -46 -10 l-39 0 0 55 0 55 68 0 c54 0 81 -6 139 -32
40 -18 73 -38 73 -45 0 -7 15 1 32 18 24 21 42 29 70 29 32 0 37 -3 41 -27 3
-23 4 -21 6 10 l1 37 -42 -6 c-41 -5 -42 -5 -23 11 11 8 34 29 51 45 l32 30 4
-30 c3 -16 1 -35 -3 -42 -5 -7 -2 -22 5 -33 19 -30 30 -79 15 -69 -7 4 -10 2
-7 -7 3 -8 14 -15 26 -17 21 -3 21 -2 7 25 -8 15 -15 36 -15 46 0 9 -5 17 -11
17 -7 0 -9 16 -4 51 6 42 4 52 -11 64 -18 13 -18 15 -1 44 11 19 14 32 7 36
-5 3 -10 -1 -10 -10 0 -18 -41 -85 -52 -85 -13 0 -9 12 9 32 9 10 11 18 5 18
-12 0 -38 -40 -34 -52 4 -14 -72 -85 -98 -91 -36 -9 -88 29 -102 75 -12 41
-25 43 -25 3 0 -41 -12 -43 -44 -7 -19 21 -29 44 -30 65 0 29 -1 30 -9 9 -5
-12 -7 -29 -4 -37 9 -22 -38 -19 -67 4 -19 14 -39 18 -94 16 -38 -1 -72 -3
-75 -4 -3 -2 -23 -3 -45 -3 l-40 0 35 -7 c24 -5 -11 -9 -111 -14 -119 -7 -158
-5 -207 8 -53 13 -90 20 -140 24 -7 0 -11 5 -8 10 3 4 36 7 73 6 38 -1 53 -1
36 2 -34 4 -38 10 -27 37 4 11 20 17 48 18 l41 1 -50 7 -50 7 45 3 c29 2 36 4
20 7 -47 8 -57 15 -30 23 21 7 19 8 -15 9 -34 1 -41 -2 -42 -19z m465 -197
c-15 -2 -42 -2 -60 0 -18 2 -6 4 27 4 33 0 48 -2 33 -4z m162 -68 c0 -30 -4
-55 -10 -55 -5 0 -10 25 -10 55 0 30 5 55 10 55 6 0 10 -25 10 -55z m-436
-534 c16 -6 10 -10 -28 -20 -52 -13 -62 -10 -53 14 7 16 48 19 81 6z m476
-197 c0 -7 -8 -22 -18 -35 -19 -22 -19 -22 -83 -6 -35 8 -95 18 -134 22 -96 9
-125 15 -125 27 0 6 65 8 180 6 126 -2 180 -6 180 -14z"/>
<path d="M2075 1133 c-5 -10 -9 -20 -9 -23 -1 -3 -7 -15 -14 -26 -6 -12 -9
-24 -5 -27 6 -7 -16 -67 -25 -67 -3 0 -15 8 -26 17 -17 14 -16 12 2 -9 17 -19
22 -33 17 -50 -5 -19 -4 -20 5 -6 13 22 71 200 66 205 -2 2 -7 -4 -11 -14z"/>
<path d="M2953 1133 c-16 -6 -17 -43 -2 -43 8 0 10 -17 7 -50 -4 -40 -3 -47 7
-33 7 9 17 13 23 9 7 -4 12 -2 12 3 0 6 -7 11 -15 11 -10 0 -15 15 -17 53 -2
38 -7 52 -15 50z"/>
<path d="M1523 1080 c17 -13 24 -27 21 -38 -5 -15 -5 -15 5 -1 8 13 29 17 97
18 82 2 86 1 81 -19 -3 -11 -1 -20 4 -20 5 0 9 15 9 33 l0 32 -101 -3 c-63 -2
-106 1 -112 7 -6 6 -15 11 -20 11 -5 0 2 -9 16 -20z"/>
<path d="M450 1075 c0 -9 6 -12 15 -9 12 5 15 -3 15 -35 0 -55 25 -56 28 -1 2
30 -1 40 -13 40 -8 0 -15 5 -15 10 0 6 -7 10 -15 10 -8 0 -15 -7 -15 -15z"/>
<path d="M253 1069 c-7 -7 -8 -21 -3 -39 8 -28 7 -29 -28 -33 -32 -3 -30 -4
12 -5 52 -2 75 14 76 52 0 18 1 18 13 4 9 -12 17 -13 32 -7 19 9 19 9 -2 5
-12 -2 -24 2 -27 10 -9 23 -24 16 -28 -13 -2 -18 -10 -29 -22 -31 -16 -3 -18
1 -14 32 2 20 4 36 3 36 -1 0 -6 -5 -12 -11z"/>
<path d="M1463 1074 c3 -4 2 -16 -4 -27 -8 -14 -8 -18 0 -12 7 4 20 1 29 -6
12 -10 11 -7 -3 10 -19 23 -19 24 -1 17 16 -5 17 -4 6 9 -7 8 -17 15 -23 15
-6 0 -7 -3 -4 -6z"/>
<path d="M1584 1014 c-13 -19 -19 -22 -26 -12 -7 9 -8 8 -4 -5 3 -10 6 -22 6
-25 0 -4 11 6 24 23 18 23 32 30 60 30 20 1 35 -3 33 -8 -1 -5 -6 -7 -10 -5
-16 6 -28 -31 -17 -49 9 -16 10 -15 5 5 -4 15 -2 22 8 22 14 0 47 30 47 43 0
4 -25 7 -55 7 -47 0 -57 -3 -71 -26z"/>
<path d="M2875 998 c5 -26 3 -27 -42 -31 -38 -3 -33 -4 22 -5 39 -1 77 3 85 9
12 8 8 10 -17 6 -27 -3 -34 1 -43 22 l-10 26 5 -27z"/>
<path d="M675 990 c4 -22 1 -24 -23 -11 -10 5 -67 5 -132 1 l-115 -8 117 2
c64 2 121 -1 126 -6 6 -6 53 -7 116 -2 59 4 105 8 103 10 -2 3 -45 5 -96 5
-50 0 -89 4 -86 9 3 5 1 11 -4 15 -6 3 -8 -3 -6 -15z"/>
<path d="M190 972 c0 -5 18 -9 40 -10 23 -1 82 -7 133 -13 125 -14 158 -16
163 -7 3 5 -13 8 -35 8 -22 0 -73 4 -113 9 -140 18 -188 21 -188 13z"/>
<path d="M2563 963 c-113 -2 -183 -7 -183 -13 0 -13 356 -3 379 10 13 8 13 9
1 7 -8 -1 -97 -3 -197 -4z"/>
<path d="M212 918 c-23 -18 -41 -38 -41 -44 -1 -12 -67 -75 -78 -73 -18 2 -18
-38 0 -63 13 -18 18 -35 14 -55 -6 -25 -5 -25 9 6 14 31 14 34 -5 48 -12 8
-21 19 -21 26 0 6 39 51 87 99 92 92 103 110 35 56z"/>
<path d="M294 908 c-4 -13 -24 -43 -46 -67 -26 -30 -35 -47 -27 -52 7 -4 9
-14 6 -22 -3 -9 -1 -18 6 -20 7 -2 9 -8 5 -12 -4 -4 -16 -1 -27 7 -12 8 -18
18 -14 21 3 4 3 7 0 7 -6 0 -66 -88 -102 -150 -7 -12 -6 -13 6 -3 8 6 28 34
44 62 20 34 37 51 50 51 52 0 55 -41 5 -80 -20 -16 -40 -26 -44 -22 -4 4 -7 2
-6 -3 5 -21 -1 -35 -13 -35 -7 0 -21 -16 -31 -35 -13 -24 -22 -32 -27 -23 -9
15 -39 -7 -39 -29 0 -24 37 3 118 88 42 43 80 79 84 79 18 0 6 -38 -14 -48
-13 -6 -18 -11 -12 -11 5 -1 18 5 28 12 16 11 16 20 5 105 -12 94 -6 122 26
122 11 0 39 70 31 78 -2 2 -7 -7 -12 -20z"/>
<path d="M2347 833 c-15 -54 -30 -113 -33 -131 -5 -24 -9 -30 -16 -20 -5 8 -6
2 -2 -17 4 -16 3 -27 -1 -23 -4 4 -20 -12 -35 -35 -32 -50 -78 -90 -96 -83 -7
3 -21 -5 -31 -18 -10 -12 -27 -28 -38 -35 -19 -11 -19 -12 3 -6 18 5 22 2 22
-14 0 -18 -6 -21 -45 -21 -50 0 -57 6 -22 20 12 5 15 9 7 9 -8 0 -26 -6 -40
-14 -19 -11 -21 -14 -7 -15 25 0 21 -12 -12 -35 -28 -18 -59 -65 -44 -65 4 0
16 8 27 19 13 11 44 21 79 26 l57 6 0 -48 0 -49 -72 13 c-130 24 -122 17 -119
102 2 57 -1 72 -11 69 -9 -3 -14 -27 -16 -70 -2 -58 0 -69 19 -87 13 -11 19
-24 15 -28 -9 -10 -176 -12 -171 -3 3 4 26 13 52 20 26 8 42 15 37 17 -6 2
-71 -17 -144 -41 -74 -25 -136 -43 -139 -41 -2 3 1 5 7 5 7 0 12 7 12 15 0 7
8 19 18 25 14 9 13 10 -8 4 -36 -9 -51 -24 -45 -45 4 -12 -1 -19 -14 -24 -10
-3 -22 -12 -25 -20 -4 -11 3 -15 27 -16 l32 -2 -35 -6 -35 -6 41 -27 c22 -14
61 -50 86 -78 25 -29 51 -51 58 -48 9 3 -4 22 -38 58 -28 29 -50 55 -49 57 2
1 60 -15 130 -37 96 -30 155 -42 249 -50 68 -6 148 -17 178 -25 30 -8 82 -14
115 -13 l60 1 -70 7 c-38 4 -99 14 -135 22 -36 9 -108 19 -161 23 -53 3 -118
12 -145 20 -118 33 -267 84 -251 84 14 1 17 6 12 21 -8 26 38 45 147 61 126
18 165 17 171 -9 4 -16 5 -16 6 1 2 26 58 21 112 -11 77 -46 102 -70 96 -92
-4 -17 0 -20 28 -20 19 0 37 5 40 10 3 6 1 10 -4 10 -6 0 -10 5 -9 12 2 6 -25
34 -60 62 -71 57 -65 68 24 40 55 -17 56 -18 52 -51 -3 -26 0 -33 13 -33 10 0
21 -4 24 -10 3 -5 16 -15 28 -21 21 -10 21 -9 -2 10 -13 12 -19 21 -15 21 5 0
3 4 -5 9 -18 12 -4 54 16 47 8 -3 21 -6 28 -6 10 0 15 -18 17 -62 l3 -63 55
-7 c30 -4 99 -11 153 -14 82 -6 95 -9 85 -21 -10 -12 -8 -12 14 -2 20 9 43 8
104 -4 98 -20 208 -32 154 -17 -19 5 -46 12 -59 14 -13 3 -32 13 -43 23 -18
16 -19 26 -13 98 6 68 12 88 42 133 19 30 32 56 29 60 -3 3 -6 0 -6 -6 0 -13
-26 -16 -33 -4 -2 4 -2 1 -1 -5 2 -7 -3 -13 -10 -13 -8 0 -16 -7 -20 -15 -7
-20 3 -19 26 2 10 9 18 11 18 5 0 -6 -12 -20 -26 -31 -28 -22 -50 -28 -39 -11
3 5 0 7 -9 4 -16 -6 -21 8 -29 71 -3 25 -4 23 -6 -10 -1 -30 -4 -36 -11 -25
-20 31 -5 110 21 110 6 0 7 -5 3 -12 -4 -7 -3 -8 5 -4 6 4 9 12 6 17 -4 5 -1
9 4 9 6 0 11 8 11 17 0 13 -3 14 -12 5 -7 -7 -32 -13 -58 -13 -44 -2 -44 -2
-10 -8 l35 -6 -30 -12 c-60 -24 -75 -25 -75 -9 0 9 6 16 13 16 8 0 8 3 -2 9
-8 5 -11 16 -8 25 4 9 2 16 -3 16 -15 0 -12 -118 5 -180 19 -72 19 -100 -2
-117 -10 -8 -12 -12 -5 -8 9 5 12 -7 12 -45 0 -43 -3 -51 -16 -46 -9 3 -20 6
-26 6 -6 0 -9 24 -8 58 6 144 -2 695 -9 677 -5 -11 -9 -182 -10 -380 -1 -198
-4 -361 -5 -363 -3 -3 -110 13 -163 24 -23 4 -23 7 -23 154 l0 150 28 1 c25 2
26 2 3 6 -27 5 -51 25 -51 42 0 6 23 12 53 13 l52 1 -51 6 c-50 6 -51 7 -42
31 10 24 11 24 18 5 6 -17 9 -15 14 15 3 19 7 62 9 95 l2 60 67 3 c62 3 67 1
72 -20 2 -13 3 2 0 32 -2 30 -5 83 -6 117 0 34 -4 60 -8 58 -4 -2 -20 0 -36 5
-29 8 -29 8 8 9 65 2 54 21 -11 21 -34 0 -61 4 -61 10 0 5 53 7 138 3 75 -3
135 -3 132 -1 -3 3 -66 8 -140 12 l-135 7 -28 -98z m126 -15 c-1 -16 -2 -31
-3 -35 -1 -5 -1 -23 0 -42 2 -40 -11 -51 -65 -51 -61 0 -68 -10 -73 -87 -4
-63 -21 -103 -43 -103 -22 0 -119 -43 -114 -50 3 -5 20 0 38 10 18 11 42 20
55 20 22 0 22 -2 22 -130 0 -119 -2 -130 -18 -130 -10 0 -22 4 -27 9 -6 5 -32
18 -59 29 l-50 19 3 99 c3 104 11 134 38 134 24 0 119 103 131 142 6 18 21 70
33 116 l21 83 56 -3 c54 -3 56 -4 55 -30z m-353 -412 c0 -10 -16 -15 -55 -18
-61 -3 -72 6 -22 21 48 14 77 13 77 -3z m187 -228 c-1 -46 -3 -9 -3 82 0 91 2
128 3 83 2 -46 2 -120 0 -165z m345 181 c-3 -31 1 -48 18 -71 12 -16 20 -31
18 -32 -16 -12 -81 -46 -82 -44 -1 2 -9 40 -18 86 l-15 82 31 9 c50 15 52 14
48 -30z m75 -208 l2 -102 -32 6 c-18 3 -41 8 -52 10 -11 2 -28 4 -38 4 -15 1
-18 9 -15 53 3 50 5 54 58 95 30 23 59 41 65 39 5 -1 11 -48 12 -105z"/>
<path d="M2168 419 c-10 -5 -18 -14 -18 -20 0 -12 100 -1 115 12 12 12 -21 12
-63 -1 -29 -8 -32 -7 -22 5 14 17 12 18 -12 4z"/>
<path d="M2708 923 c17 -2 47 -2 65 0 17 2 3 4 -33 4 -36 0 -50 -2 -32 -4z"/>
<path d="M445 910 c-24 -6 -18 -8 28 -9 87 -2 97 -10 97 -81 l0 -59 -32 -4
-33 -4 33 -1 33 -2 -2 -185 c-1 -132 -4 -185 -13 -185 -7 0 -6 -4 2 -9 11 -6
13 -33 10 -110 -2 -76 0 -101 10 -101 9 0 12 78 12 358 l0 358 -27 15 c-36 21
-80 28 -118 19z"/>
<path d="M1237 896 c-44 -52 -77 -100 -77 -110 0 -6 12 7 26 29 15 22 38 52
52 67 14 15 24 30 21 32 -2 2 -12 -6 -22 -18z"/>
<path d="M1112 886 c-18 -40 -15 -68 4 -33 8 16 14 36 12 44 -2 12 -7 9 -16
-11z"/>
<path d="M2675 900 l-70 -6 65 -2 c36 -1 72 3 80 8 8 5 11 9 5 8 -5 -1 -41 -4
-80 -8z"/>
<path d="M768 860 c-17 -40 -17 -40 -64 -36 -26 3 -51 11 -55 18 -7 10 -9 10
-9 0 0 -7 7 -15 16 -19 11 -4 12 -8 4 -13 -7 -4 -1 -7 15 -7 20 0 23 2 14 9
-9 6 -2 7 21 3 41 -6 51 -1 73 40 l16 30 1 -42 c0 -24 -3 -42 -7 -42 -42 7
-59 -16 -18 -23 15 -3 22 -1 18 5 -4 7 12 8 48 4 36 -4 49 -3 39 3 -8 5 -27
10 -42 10 -27 0 -28 2 -28 50 0 62 -18 66 -42 10z"/>
<path d="M903 835 c-1 -51 1 -62 7 -40 5 19 8 -11 9 -85 l1 -116 40 4 39 4 4
-108 3 -109 2 116 c2 124 -1 134 -48 141 -17 2 -26 10 -28 26 -3 21 0 23 20
18 l23 -6 -23 12 c-18 9 -23 19 -21 47 1 20 1 65 -1 101 -2 56 -4 60 -10 30
l-7 -35 -5 35 c-3 21 -5 8 -5 -35z"/>
<path d="M2182 888 c-5 -7 -13 -35 -16 -63 l-5 -50 11 45 c6 25 13 40 15 33 2
-6 0 -29 -6 -50 -6 -21 -11 -49 -10 -63 0 -31 25 45 35 107 5 38 9 42 38 46
26 3 25 4 -10 5 -23 1 -46 -4 -52 -10z"/>
<path d="M1787 866 c-25 -20 -26 -24 -12 -30 24 -9 45 -8 45 3 0 5 -10 7 -22
3 -14 -3 -19 -2 -14 6 4 7 24 12 44 12 34 0 35 1 16 15 -24 18 -24 19 -57 -9z"/>
<path d="M2258 851 c-9 -10 -21 -20 -28 -23 -7 -2 -11 -10 -8 -18 3 -9 13 -5
38 17 18 16 29 33 23 36 -5 3 -16 -2 -25 -12z"/>
<path d="M624 715 c0 -82 2 -115 3 -72 2 43 2 110 0 150 -1 40 -3 5 -3 -78z"/>
<path d="M490 800 c-37 -8 -36 -8 43 -14 30 -2 36 8 11 18 -9 3 -16 5 -17 5
-1 -1 -18 -5 -37 -9z"/>
<path d="M260 790 c0 -4 33 -10 73 -14 39 -4 90 -9 112 -11 32 -4 28 -2 -15 9
-64 16 -170 26 -170 16z"/>
<path d="M1996 755 c-4 -24 -12 -47 -17 -51 -18 -11 12 -104 34 -104 4 0 -2
18 -13 40 -31 61 -23 71 10 13 30 -52 95 -107 113 -96 5 3 -4 13 -20 23 -38
24 -80 69 -91 101 -6 14 -8 46 -5 72 7 60 -3 62 -11 2z"/>
<path d="M2625 790 c-4 -6 11 -10 37 -10 31 0 39 3 28 10 -20 13 -57 13 -65 0z"/>
<path d="M1435 774 c11 -8 19 -22 17 -30 -4 -19 40 -13 47 7 2 8 11 20 20 27
14 11 13 11 -7 2 -12 -6 -28 -8 -34 -4 -7 4 -8 3 -4 -4 4 -7 2 -12 -4 -12 -6
0 -13 7 -16 15 -4 8 -14 15 -23 15 -13 -1 -13 -3 4 -16z"/>
<path d="M2594 764 c-12 -39 -27 -63 -36 -58 -4 3 -8 -2 -8 -10 0 -9 8 -16 18
-16 14 0 21 12 29 47 11 48 9 73 -3 37z"/>
<path d="M646 754 c-3 -8 1 -14 10 -14 8 0 13 4 10 9 -3 4 50 6 117 3 67 -2
120 -2 117 0 -3 3 -60 8 -127 11 -99 4 -123 2 -127 -9z"/>
<path d="M1530 755 c0 -8 12 -18 28 -21 31 -8 42 -20 42 -51 0 -12 3 -24 8
-26 4 -3 7 19 7 49 0 56 -3 62 -22 43 -9 -9 -18 -8 -37 5 -22 14 -26 14 -26 1z"/>
<path d="M2144 719 c-5 -30 -7 -80 -4 -110 l5 -54 8 43 c4 23 5 61 2 85 -3 35
-3 37 4 12 8 -27 9 -28 9 -5 0 14 -3 39 -7 55 -6 27 -7 25 -17 -26z"/>
<path d="M2681 739 c-6 -17 -22 -40 -36 -51 -14 -11 -25 -28 -25 -39 0 -12
-11 -24 -27 -31 -16 -7 -29 -13 -31 -14 -1 0 0 -9 4 -18 5 -12 20 -16 69 -16
35 0 66 4 69 8 3 5 -19 7 -49 4 -39 -3 -55 -1 -55 7 0 7 25 44 55 83 52 66 67
98 46 98 -5 0 -14 -14 -20 -31z"/>
<path d="M289 711 c-1 -25 0 -58 1 -73 1 -16 -3 -28 -9 -28 -6 0 -10 -4 -9 -8
4 -12 -68 -72 -77 -64 -5 4 -5 2 -2 -5 5 -8 15 -8 37 0 17 7 25 14 18 18 -7 4
-3 11 10 18 28 15 31 14 25 -9 -3 -11 0 -20 6 -20 7 0 11 23 11 61 l0 61 48
-6 c26 -3 85 -8 132 -10 111 -7 35 9 -93 19 l-88 7 3 31 c3 36 -6 35 148 25
l95 -7 -80 13 c-44 7 -101 15 -127 18 l-48 6 -1 -47z"/>
<path d="M1670 739 c-39 -17 -41 -19 -13 -15 24 4 33 1 36 -12 4 -14 5 -13 6
4 0 11 6 25 13 32 16 16 12 15 -42 -9z"/>
<path d="M2193 732 c-14 -33 -38 -180 -31 -188 3 -3 9 17 12 43 4 26 14 74 22
107 16 64 15 80 -3 38z"/>
<path d="M36 704 c-4 -9 -1 -23 6 -31 10 -12 9 -18 -5 -28 -9 -7 -17 -16 -17
-20 0 -4 7 -1 16 6 14 11 18 10 30 -6 14 -18 14 -18 14 2 0 11 -9 28 -19 37
-11 10 -17 25 -14 37 6 23 -2 26 -11 3z"/>
<path d="M720 670 c-25 -4 -4 -5 50 -2 52 2 97 6 99 8 7 6 -99 2 -149 -6z"/>
<path d="M1560 647 c14 -8 49 -21 79 -28 46 -11 50 -15 30 -20 -22 -7 -22 -7
6 -8 17 -1 41 -4 55 -7 23 -5 22 -4 -6 14 -18 11 -35 26 -39 32 -6 9 -9 9 -15
-1 -6 -9 -12 -10 -22 -2 -7 5 -26 13 -43 16 -16 3 -39 8 -50 12 -13 4 -11 1 5
-8z"/>
<path d="M2382 635 c-2 -22 1 -24 31 -18 42 8 47 13 14 13 -33 0 -36 17 -4 23
17 3 15 5 -8 6 -26 1 -31 -3 -33 -24z"/>
<path d="M660 639 c0 -7 31 -9 88 -8 134 4 153 17 25 18 -74 1 -113 -3 -113
-10z"/>
<path d="M1510 632 c0 -13 45 -52 59 -52 7 0 9 5 6 10 -4 6 8 10 27 11 33 1
32 1 -7 9 -22 4 -44 5 -49 2 -5 -3 -6 0 -3 5 4 6 0 14 -9 17 -21 8 -24 8 -24
-2z"/>
<path d="M1226 604 c16 -13 16 -15 2 -10 -10 3 -18 1 -18 -4 0 -6 20 -10 45
-10 35 0 45 4 45 16 0 13 -7 15 -30 11 -16 -4 -32 -2 -35 3 -3 6 -11 10 -18
10 -6 0 -2 -7 9 -16z"/>
<path d="M490 575 c-12 -19 -31 -42 -43 -50 -12 -8 -17 -15 -11 -15 6 0 20 10
31 23 25 27 57 77 50 77 -3 0 -15 -16 -27 -35z"/>
<path d="M1100 593 c-29 -5 -52 -23 -29 -23 7 1 39 7 69 15 46 11 50 13 20 13
-19 0 -46 -3 -60 -5z"/>
<path d="M634 547 c-2 -7 -3 -87 -1 -177 l3 -165 2 172 2 172 48 4 47 3 -48 2
c-31 1 -49 -2 -53 -11z"/>
<path d="M796 543 c49 -4 51 -5 46 -30 -3 -18 -1 -24 7 -19 6 4 11 16 11 26 0
10 6 21 13 23 6 3 -19 5 -58 4 -57 -1 -61 -1 -19 -4z"/>
<path d="M2480 539 c0 -7 -14 -10 -35 -7 -19 2 -35 0 -35 -4 0 -4 18 -8 40 -8
29 0 40 4 40 15 0 8 -2 15 -5 15 -3 0 -5 -5 -5 -11z"/>
<path d="M2628 533 c17 -2 47 -2 65 0 17 2 3 4 -33 4 -36 0 -50 -2 -32 -4z"/>
<path d="M192 480 c-27 -22 -54 -40 -59 -40 -4 0 -14 -9 -21 -20 -7 -11 -20
-20 -29 -20 -9 0 -14 -3 -10 -6 10 -11 45 6 83 41 21 19 43 35 50 35 6 0 14 7
18 15 3 9 16 20 28 25 15 6 18 9 7 9 -9 1 -39 -17 -67 -39z"/>
<path d="M1840 509 c19 -6 58 -17 87 -26 69 -21 183 -4 183 27 0 14 -52 9 -71
-7 -11 -9 -30 -10 -75 -4 -32 5 -81 11 -109 14 -45 5 -47 4 -15 -4z"/>
<path d="M400 453 c0 -15 -2 -16 -10 -3 -8 13 -10 12 -10 -2 0 -10 4 -18 9
-18 5 0 11 -10 13 -22 3 -14 6 -7 9 20 2 23 1 42 -3 42 -5 0 -8 -8 -8 -17z"/>
<path d="M823 453 c-3 -10 -14 -38 -24 -62 -11 -24 -18 -55 -18 -70 1 -22 2
-21 9 9 4 19 17 59 29 88 11 28 19 52 16 52 -3 0 -8 -8 -12 -17z"/>
<path d="M1860 395 c0 -84 17 -84 22 0 2 47 0 65 -9 65 -9 0 -13 -20 -13 -65z"/>
<path d="M226 411 c-21 -22 -36 -45 -33 -53 3 -8 6 -6 7 7 1 11 8 -2 16 -30
l13 -50 -5 53 c-4 48 -2 54 26 82 17 17 27 30 22 30 -4 0 -25 -18 -46 -39z"/>
<path d="M2370 434 c-44 -12 -43 -12 45 -11 50 0 72 2 50 4 -22 3 -42 8 -45
12 -3 4 -25 2 -50 -5z"/>
<path d="M1250 433 c-19 -3 -39 -9 -45 -14 -12 -12 92 -1 115 12 16 9 -3 10
-70 2z"/>
<path d="M34 385 c8 -8 20 -31 27 -50 7 -19 16 -35 20 -35 14 0 -3 65 -22 83
-22 21 -47 23 -25 2z"/>
<path d="M1548 393 c18 -2 45 -2 60 0 15 2 0 4 -33 4 -33 0 -45 -2 -27 -4z"/>
<path d="M193 322 c-8 -5 -10 -23 -5 -52 l6 -45 7 50 c7 57 7 56 -8 47z"/>
<path d="M540 280 c-1 -8 -5 -36 -9 -63 -7 -44 -7 -46 8 -30 11 11 15 29 13
52 -4 42 -10 62 -12 41z"/>
<path d="M1823 232 c-17 -11 14 -55 33 -48 8 3 25 1 38 -4 25 -9 92 -14 141
-10 l30 2 -30 8 c-16 4 -58 8 -92 9 -60 1 -63 2 -63 26 0 14 -4 25 -10 25 -5
0 -10 -11 -10 -25 0 -32 -18 -33 -22 0 -2 16 -7 22 -15 17z"/>
<path d="M2842 222 c-17 -8 -33 -21 -36 -28 -3 -7 11 -2 31 12 19 13 40 21 45
18 5 -4 8 -32 6 -64 -1 -32 0 -62 5 -66 4 -4 7 26 7 68 0 82 -3 85 -58 60z"/>
<path d="M354 170 c1 -19 55 -24 116 -11 41 9 38 10 -32 7 -52 -3 -78 0 -81 7
-2 7 -3 5 -3 -3z"/>
<path d="M2785 155 c-3 -8 -7 -22 -10 -30 -5 -17 4 -45 14 -45 3 0 6 20 6 45
0 47 -3 55 -10 30z"/>
<path d="M12 151 c-10 -6 -8 -10 10 -14 49 -14 178 -3 178 14 0 11 -171 11
-188 0z"/>
<path d="M230 150 c14 -4 39 -8 55 -8 l30 0 -30 8 c-16 4 -41 8 -55 8 l-25 0
25 -8z"/>
<path d="M430 103 c0 -26 -168 -45 -207 -25 -27 15 -34 15 -30 0 1 -6 -9 -17
-23 -25 -23 -11 -17 -13 55 -13 92 0 157 9 150 20 -3 5 8 11 25 15 30 7 47 21
36 32 -3 4 -6 2 -6 -4z"/>
</g>
</svg>
